<svg width="52" height="39" viewBox="0 0 52 39" fill="none" xmlns="http://www.w3.org/2000/svg">
<rect x="0.5" width="51" height="39" rx="19.5" fill="#3B42E8"/>
<path d="M25.1667 26.1667C25.1667 26.3877 25.2545 26.5996 25.4107 26.7559C25.567 26.9122 25.779 27 26 27C26.221 27 26.433 26.9122 26.5893 26.7559C26.7455 26.5996 26.8333 26.3877 26.8333 26.1667V20.3333H32.6667C32.8877 20.3333 33.0996 20.2455 33.2559 20.0893C33.4122 19.933 33.5 19.721 33.5 19.5C33.5 19.279 33.4122 19.067 33.2559 18.9107C33.0996 18.7545 32.8877 18.6667 32.6667 18.6667H26.8333V12.8333C26.8333 12.6123 26.7455 12.4004 26.5893 12.2441C26.433 12.0878 26.221 12 26 12C25.779 12 25.567 12.0878 25.4107 12.2441C25.2545 12.4004 25.1667 12.6123 25.1667 12.8333V18.6667H19.3333C19.1123 18.6667 18.9004 18.7545 18.7441 18.9107C18.5878 19.067 18.5 19.279 18.5 19.5C18.5 19.721 18.5878 19.933 18.7441 20.0893C18.9004 20.2455 19.1123 20.3333 19.3333 20.3333H25.1667V26.1667Z" fill="white"/>
</svg>
