<svg width="24" height="25" viewBox="0 0 24 25" fill="none" xmlns="http://www.w3.org/2000/svg">
<path d="M21.1907 7.59224L21.1905 7.59135C20.5986 5.58443 18.9163 3.90194 16.9094 3.30973C15.2979 2.84106 14.3624 2.93758 13.7694 3.38041L21.1907 7.59224ZM21.1907 7.59224C21.6687 9.20188 21.5605 10.1309 21.1062 10.7119L21.1061 10.7118M21.1907 7.59224L21.1061 10.7118M21.1061 10.7118L21.0995 10.7206M21.1061 10.7118L21.0995 10.7206M21.0995 10.7206C20.8305 11.0806 20.4413 11.2977 19.9868 11.4246C19.5286 11.5525 19.0347 11.5799 18.6 11.5799H15.73C14.7246 11.5799 14.05 11.297 13.6176 10.8139C13.176 10.3206 12.91 9.53366 12.91 8.3699V5.8799C12.91 4.95844 13.0376 3.92745 13.7692 3.38051L21.0995 10.7206Z" fill="#3B42E8" stroke="#3B42E8"/>
<path d="M18.5322 14.1874L18.5321 14.1874L18.5377 14.1937C18.6994 14.374 18.7759 14.6185 18.7441 14.8663L18.744 14.8666C18.4618 17.0776 17.2465 19.1151 15.4161 20.4454L15.4148 20.4464C14.0114 21.473 12.365 21.9999 10.66 21.9999C10.1405 21.9999 9.62351 21.9527 9.10808 21.8496L9.10809 21.8496L9.10259 21.8486C5.85466 21.2366 3.26307 18.6446 2.65133 15.4071L2.65132 15.407C2.22645 13.16 2.71698 10.9206 4.05421 9.08424L4.05448 9.08387C5.38484 7.25344 7.42235 6.03813 9.63334 5.75588L9.63525 5.75563C9.87278 5.72438 10.1265 5.80103 10.3062 5.96219L10.3062 5.96224L10.3126 5.96775C10.5017 6.1317 10.61 6.37325 10.61 6.61991V10.1999C10.61 12.236 12.2639 13.8899 14.3 13.8899H17.88C18.1267 13.8899 18.3682 13.9982 18.5322 14.1874Z" fill="#3B42E8" stroke="#3B42E8"/>
</svg>
