<svg width="24" height="25" viewBox="0 0 24 25" fill="none" xmlns="http://www.w3.org/2000/svg">
<path d="M21.67 7.4499C21.03 5.2799 19.22 3.4699 17.05 2.8299C15.4 2.3499 14.26 2.3899 13.47 2.9799C12.52 3.6899 12.41 4.9699 12.41 5.8799V8.3699C12.41 10.8299 13.53 12.0799 15.73 12.0799H18.6C19.5 12.0799 20.79 11.9699 21.5 11.0199C22.11 10.2399 22.16 9.0999 21.67 7.4499Z" fill="#3B42E8"/>
<path d="M18.91 13.8599C18.65 13.5599 18.27 13.3899 17.88 13.3899H14.3C12.54 13.3899 11.11 11.9599 11.11 10.1999V6.61991C11.11 6.22991 10.94 5.84991 10.64 5.58991C10.35 5.32991 9.95002 5.20991 9.57002 5.25991C7.22002 5.55991 5.06002 6.84991 3.65002 8.78991C2.23002 10.7399 1.71002 13.1199 2.16002 15.4999C2.81002 18.9399 5.56002 21.6899 9.01002 22.3399C9.56002 22.4499 10.11 22.4999 10.66 22.4999C12.47 22.4999 14.22 21.9399 15.71 20.8499C17.65 19.4399 18.94 17.2799 19.24 14.9299C19.29 14.5399 19.17 14.1499 18.91 13.8599Z" fill="#3B42E8"/>
</svg>
