<svg width="35" height="35" viewBox="0 0 35 35" fill="none" xmlns="http://www.w3.org/2000/svg">
<path d="M13.125 30.625H7.29167C5.6875 30.625 4.375 29.3125 4.375 27.7083V7.29167C4.375 5.6875 5.6875 4.375 7.29167 4.375H13.125C14.7292 4.375 16.0417 5.6875 16.0417 7.29167V27.7083C16.0417 29.3125 14.7292 30.625 13.125 30.625ZM21.875 30.625H27.7083C29.3125 30.625 30.625 29.3125 30.625 27.7083V20.4167C30.625 18.8125 29.3125 17.5 27.7083 17.5H21.875C20.2708 17.5 18.9583 18.8125 18.9583 20.4167V27.7083C18.9583 29.3125 20.2708 30.625 21.875 30.625ZM30.625 11.6667V7.29167C30.625 5.6875 29.3125 4.375 27.7083 4.375H21.875C20.2708 4.375 18.9583 5.6875 18.9583 7.29167V11.6667C18.9583 13.2708 20.2708 14.5833 21.875 14.5833H27.7083C29.3125 14.5833 30.625 13.2708 30.625 11.6667Z" fill="#727272"/>
</svg>
