<svg width="17" height="15" viewBox="0 0 17 15" fill="none" xmlns="http://www.w3.org/2000/svg">
<path d="M14.75 2.1875H12.5844L11.5195 0.590625C11.4625 0.505118 11.3852 0.435002 11.2946 0.386489C11.204 0.337975 11.1028 0.312562 11 0.3125H6C5.89721 0.312562 5.79602 0.337975 5.7054 0.386489C5.61478 0.435002 5.53752 0.505118 5.48047 0.590625L4.41484 2.1875H2.25C1.75272 2.1875 1.27581 2.38504 0.924175 2.73667C0.572544 3.08831 0.375 3.56522 0.375 4.0625V12.8125C0.375 13.3098 0.572544 13.7867 0.924175 14.1383C1.27581 14.49 1.75272 14.6875 2.25 14.6875H14.75C15.2473 14.6875 15.7242 14.49 16.0758 14.1383C16.4275 13.7867 16.625 13.3098 16.625 12.8125V4.0625C16.625 3.56522 16.4275 3.08831 16.0758 2.73667C15.7242 2.38504 15.2473 2.1875 14.75 2.1875ZM15.375 12.8125C15.375 12.9783 15.3092 13.1372 15.1919 13.2544C15.0747 13.3717 14.9158 13.4375 14.75 13.4375H2.25C2.08424 13.4375 1.92527 13.3717 1.80806 13.2544C1.69085 13.1372 1.625 12.9783 1.625 12.8125V4.0625C1.625 3.89674 1.69085 3.73777 1.80806 3.62056C1.92527 3.50335 2.08424 3.4375 2.25 3.4375H4.75C4.85292 3.43757 4.95427 3.41221 5.04504 3.3637C5.13581 3.31518 5.21319 3.24499 5.27031 3.15938L6.33437 1.5625H10.6648L11.7297 3.15938C11.7868 3.24499 11.8642 3.31518 11.955 3.3637C12.0457 3.41221 12.1471 3.43757 12.25 3.4375H14.75C14.9158 3.4375 15.0747 3.50335 15.1919 3.62056C15.3092 3.73777 15.375 3.89674 15.375 4.0625V12.8125ZM8.5 4.6875C7.82013 4.6875 7.15552 4.88911 6.59023 5.26682C6.02493 5.64454 5.58434 6.1814 5.32416 6.80953C5.06399 7.43765 4.99591 8.12881 5.12855 8.79562C5.26119 9.46243 5.58858 10.0749 6.06932 10.5557C6.55006 11.0364 7.16257 11.3638 7.82938 11.4964C8.49619 11.6291 9.18735 11.561 9.81547 11.3008C10.4436 11.0407 10.9805 10.6001 11.3582 10.0348C11.7359 9.46948 11.9375 8.80487 11.9375 8.125C11.9365 7.21364 11.574 6.33989 10.9295 5.69546C10.2851 5.05103 9.41136 4.68853 8.5 4.6875ZM8.5 10.3125C8.06735 10.3125 7.64442 10.1842 7.28469 9.94384C6.92496 9.70347 6.64458 9.36183 6.47901 8.96212C6.31345 8.56241 6.27013 8.12257 6.35453 7.69824C6.43894 7.27391 6.64728 6.88413 6.9532 6.5782C7.25913 6.27228 7.64891 6.06394 8.07324 5.97953C8.49757 5.89513 8.93741 5.93845 9.33712 6.10401C9.73683 6.26958 10.0785 6.54996 10.3188 6.90969C10.5592 7.26942 10.6875 7.69235 10.6875 8.125C10.6875 8.70516 10.457 9.26156 10.0468 9.6718C9.63656 10.082 9.08016 10.3125 8.5 10.3125Z" fill="#080708"/>
</svg>
