<svg width="25" height="25" viewBox="0 0 25 25" fill="none" xmlns="http://www.w3.org/2000/svg">
<path d="M16.4062 12.5C16.199 12.5 16.0003 12.5823 15.8538 12.7288C15.7073 12.8753 15.625 13.074 15.625 13.2812C15.625 13.4885 15.7073 13.6872 15.8538 13.8337C16.0003 13.9802 16.199 14.0625 16.4062 14.0625H17.9688C18.176 14.0625 18.3747 13.9802 18.5212 13.8337C18.6677 13.6872 18.75 13.4885 18.75 13.2812C18.75 13.074 18.6677 12.8753 18.5212 12.7288C18.3747 12.5823 18.176 12.5 17.9688 12.5H16.4062ZM5.46875 3.125C4.84715 3.125 4.25101 3.37193 3.81147 3.81147C3.37193 4.25101 3.125 4.84715 3.125 5.46875V17.9688C3.125 19.0048 3.53655 19.9983 4.26911 20.7309C5.00168 21.4634 5.99525 21.875 7.03125 21.875H18.75C19.5788 21.875 20.3737 21.5458 20.9597 20.9597C21.5458 20.3737 21.875 19.5788 21.875 18.75V9.375C21.875 8.82646 21.7306 8.28759 21.4563 7.81254C21.182 7.3375 20.7875 6.94302 20.3125 6.66875V6.25C20.3125 5.4212 19.9833 4.62634 19.3972 4.04029C18.8112 3.45424 18.0163 3.125 17.1875 3.125H5.46875ZM5.46875 4.6875H17.1875C17.6019 4.6875 17.9993 4.85212 18.2924 5.14515C18.5854 5.43817 18.75 5.8356 18.75 6.25H5.46875C5.26155 6.25 5.06284 6.16769 4.91632 6.02118C4.76981 5.87466 4.6875 5.67595 4.6875 5.46875C4.6875 5.26155 4.76981 5.06284 4.91632 4.91632C5.06284 4.76981 5.26155 4.6875 5.46875 4.6875ZM5.46875 7.8125H18.75C19.1644 7.8125 19.5618 7.97712 19.8549 8.27015C20.1479 8.56317 20.3125 8.9606 20.3125 9.375V18.75C20.3125 19.1644 20.1479 19.5618 19.8549 19.8549C19.5618 20.1479 19.1644 20.3125 18.75 20.3125H7.03125C6.40965 20.3125 5.81351 20.0656 5.37397 19.626C4.93443 19.1865 4.6875 18.5904 4.6875 17.9688V7.67969C4.93333 7.76719 5.19375 7.81146 5.46875 7.8125Z" fill="#080708"/>
</svg>
