<svg width="24" height="25" viewBox="0 0 24 25" fill="none" xmlns="http://www.w3.org/2000/svg">
<path d="M21.45 14.14V15.14C21.45 15.41 21.24 15.63 20.96 15.64H19.5C18.97 15.64 18.49 15.25 18.45 14.73C18.42 14.42 18.54 14.13 18.74 13.93C18.92 13.74 19.17 13.64 19.44 13.64H20.95C21.24 13.65 21.45 13.87 21.45 14.14Z" fill="#3B42E8"/>
<path d="M17.99 13.19C17.49 13.68 17.25 14.41 17.45 15.17C17.71 16.1 18.62 16.69 19.58 16.69H20.45C21 16.69 21.45 17.14 21.45 17.69V17.88C21.45 19.95 19.76 21.64 17.69 21.64H6.20995C4.13995 21.64 2.44995 19.95 2.44995 17.88V11.15C2.44995 9.92001 3.03995 8.83001 3.94995 8.15001C4.57995 7.67001 5.35995 7.39001 6.20995 7.39001H17.69C19.76 7.39001 21.45 9.08001 21.45 11.15V11.59C21.45 12.14 21 12.59 20.45 12.59H19.43C18.87 12.59 18.36 12.81 17.99 13.19Z" fill="#3B42E8"/>
<path d="M16.2001 5.32C16.4701 5.59 16.2401 6.01 15.8601 6.01L8.18006 6C7.74006 6 7.51006 5.46 7.83006 5.15L9.45006 3.52C10.8201 2.16 13.0401 2.16 14.4101 3.52L16.1601 5.29C16.1701 5.3 16.1901 5.31 16.2001 5.32Z" fill="#3B42E8"/>
</svg>
