<svg width="25" height="25" viewBox="0 0 25 25" fill="none" xmlns="http://www.w3.org/2000/svg">
<path d="M21.8615 3.13801C21.5274 2.80396 21.1309 2.53898 20.6944 2.35819C20.2579 2.1774 19.7901 2.08435 19.3177 2.08435C18.8453 2.08435 18.3775 2.1774 17.9411 2.35819C17.5046 2.53898 17.108 2.80396 16.774 3.13801L4.18648 15.7276C3.78954 16.1242 3.50673 16.6204 3.36773 17.1641L2.10366 22.1042C2.07577 22.2136 2.07683 22.3284 2.10672 22.4373C2.13662 22.5462 2.19433 22.6455 2.27418 22.7253C2.35404 22.8052 2.45329 22.8629 2.56219 22.8928C2.67109 22.9227 2.7859 22.9237 2.89533 22.8958L7.83648 21.6333C8.38049 21.4945 8.87706 21.2117 9.27398 20.8146L21.8615 8.22499C22.536 7.55037 22.9149 6.63546 22.9149 5.6815C22.9149 4.72754 22.536 3.81263 21.8615 3.13801ZM17.6948 4.05884C18.1252 3.62835 18.709 3.38647 19.3178 3.38643C19.9266 3.38638 20.5104 3.62816 20.9409 4.05858C21.3714 4.48901 21.6133 5.07282 21.6133 5.68158C21.6134 6.29034 21.3716 6.87418 20.9412 7.30468L19.7917 8.45416L16.5459 5.2078L17.6948 4.05884ZM15.625 6.12864L18.8709 9.37499L8.35314 19.8937C8.12153 20.1256 7.83167 20.2908 7.51408 20.3719L3.63752 21.3625L4.62919 17.487C4.71044 17.1693 4.87554 16.8797 5.10679 16.6484L15.625 6.12864Z" fill="#080708"/>
</svg>
