<svg width="25" height="19" viewBox="0 0 25 19" fill="none" xmlns="http://www.w3.org/2000/svg">
<path fill-rule="evenodd" clip-rule="evenodd" d="M23.3594 2.75625L13.4953 10.925C13.215 11.1572 12.8624 11.2843 12.4984 11.2843C12.1344 11.2843 11.7819 11.1572 11.5016 10.925L1.64219 2.75625C1.58929 2.91549 1.56238 3.08221 1.5625 3.25V15.75C1.5625 16.1644 1.72712 16.5618 2.02015 16.8549C2.31317 17.1479 2.7106 17.3125 3.125 17.3125H21.875C22.2894 17.3125 22.6868 17.1479 22.9799 16.8549C23.2729 16.5618 23.4375 16.1644 23.4375 15.75V3.25C23.4381 3.08229 23.4117 2.91557 23.3594 2.75625ZM3.125 0.125H21.875C22.7038 0.125 23.4987 0.45424 24.0847 1.04029C24.6708 1.62634 25 2.4212 25 3.25V15.75C25 16.5788 24.6708 17.3737 24.0847 17.9597C23.4987 18.5458 22.7038 18.875 21.875 18.875H3.125C2.2962 18.875 1.50134 18.5458 0.915291 17.9597C0.32924 17.3737 0 16.5788 0 15.75V3.25C0 2.4212 0.32924 1.62634 0.915291 1.04029C1.50134 0.45424 2.2962 0.125 3.125 0.125ZM2.79687 1.6875L11.5094 8.87969C11.7884 9.11016 12.1388 9.23663 12.5007 9.23748C12.8626 9.23834 13.2136 9.11353 13.4937 8.88437L22.2937 1.6875H2.79687Z" fill="#080708"/>
</svg>
