<svg width="31" height="31" viewBox="0 0 31 31" fill="none" xmlns="http://www.w3.org/2000/svg">
<g clip-path="url(#clip0_598_2775)">
<path fill-rule="evenodd" clip-rule="evenodd" d="M6.75 4.25C6.08696 4.25 5.45107 4.51339 4.98223 4.98223C4.51339 5.45107 4.25 6.08696 4.25 6.75V11.75C4.25 12.413 4.51339 13.0489 4.98223 13.5178C5.45107 13.9866 6.08696 14.25 6.75 14.25H24.25C24.913 14.25 25.5489 13.9866 26.0178 13.5178C26.4866 13.0489 26.75 12.413 26.75 11.75V6.75C26.75 6.08696 26.4866 5.45107 26.0178 4.98223C25.5489 4.51339 24.913 4.25 24.25 4.25H6.75ZM6.75 16.75C6.08696 16.75 5.45107 17.0134 4.98223 17.4822C4.51339 17.9511 4.25 18.587 4.25 19.25V24.25C4.25 24.913 4.51339 25.5489 4.98223 26.0178C5.45107 26.4866 6.08696 26.75 6.75 26.75H24.25C24.913 26.75 25.5489 26.4866 26.0178 26.0178C26.4866 25.5489 26.75 24.913 26.75 24.25V19.25C26.75 18.587 26.4866 17.9511 26.0178 17.4822C25.5489 17.0134 24.913 16.75 24.25 16.75H6.75Z" fill="#727272"/>
</g>
<defs>
<clipPath id="clip0_598_2775">
<rect width="30" height="30" fill="white" transform="translate(0.5 0.5)"/>
</clipPath>
</defs>
</svg>
