<svg width="25" height="25" viewBox="0 0 25 25" fill="none" xmlns="http://www.w3.org/2000/svg">
<path d="M13.115 11.1375C13.0872 10.9838 13.0028 10.8461 12.8785 10.7515C12.7543 10.6569 12.5991 10.6123 12.4435 10.6264C12.288 10.6405 12.1434 10.7124 12.0381 10.8278C11.9329 10.9432 11.8747 11.0938 11.875 11.25V16.8775L11.885 16.99C11.9128 17.1437 11.9972 17.2814 12.1215 17.376C12.2457 17.4706 12.4009 17.5152 12.5565 17.5011C12.712 17.487 12.8566 17.4151 12.9619 17.2997C13.0671 17.1843 13.1253 17.0337 13.125 16.8775V11.25L13.115 11.1375ZM13.4987 8.4375C13.4987 8.18886 13.4 7.9504 13.2242 7.77459C13.0483 7.59877 12.8099 7.5 12.5612 7.5C12.3126 7.5 12.0742 7.59877 11.8983 7.77459C11.7225 7.9504 11.6237 8.18886 11.6237 8.4375C11.6237 8.68614 11.7225 8.9246 11.8983 9.10041C12.0742 9.27623 12.3126 9.375 12.5612 9.375C12.8099 9.375 13.0483 9.27623 13.2242 9.10041C13.4 8.9246 13.4987 8.68614 13.4987 8.4375ZM22.5 12.5C22.5 9.84784 21.4464 7.3043 19.5711 5.42893C17.6957 3.55357 15.1522 2.5 12.5 2.5C9.84784 2.5 7.3043 3.55357 5.42893 5.42893C3.55357 7.3043 2.5 9.84784 2.5 12.5C2.5 15.1522 3.55357 17.6957 5.42893 19.5711C7.3043 21.4464 9.84784 22.5 12.5 22.5C15.1522 22.5 17.6957 21.4464 19.5711 19.5711C21.4464 17.6957 22.5 15.1522 22.5 12.5ZM3.75 12.5C3.75 11.3509 3.97633 10.2131 4.41605 9.15152C4.85578 8.08992 5.5003 7.12533 6.31282 6.31282C7.12533 5.5003 8.08992 4.85578 9.15152 4.41605C10.2131 3.97633 11.3509 3.75 12.5 3.75C13.6491 3.75 14.7869 3.97633 15.8485 4.41605C16.9101 4.85578 17.8747 5.5003 18.6872 6.31282C19.4997 7.12533 20.1442 8.08992 20.5839 9.15152C21.0237 10.2131 21.25 11.3509 21.25 12.5C21.25 14.8206 20.3281 17.0462 18.6872 18.6872C17.0462 20.3281 14.8206 21.25 12.5 21.25C10.1794 21.25 7.95376 20.3281 6.31282 18.6872C4.67187 17.0462 3.75 14.8206 3.75 12.5Z" fill="#080708" stroke="#080708" stroke-width="0.2"/>
</svg>
