<svg width="142" height="32" viewBox="0 0 142 32" fill="none" xmlns="http://www.w3.org/2000/svg">
<path d="M24.016 0.0127949H0.998001L0 10.0056H24.016C26.7797 10.0056 29.0188 7.76649 29.0188 5.0028C29.0188 2.2391 26.7797 0 24.016 0V0.0127949Z" fill="#3B42E8"/>
<path d="M14.5095 12.0144H12.0145L9.51953 32H14.5223C20.0497 32 24.5279 27.5218 24.5279 22.0072C24.5279 16.4926 20.0497 12.0144 14.5223 12.0144H14.5095Z" fill="#3B42E8"/>
<path d="M46.699 12.5415V25.4746H43.101V12.5415H38.2876V9.33257H51.4881V12.5415H46.699Z" fill="#FDF4FF"/>
<path d="M58.6317 13.8057C59.361 13.8057 59.9688 13.9758 60.3091 14.2432V17.355H60.1875C59.7013 17.0146 59.0936 16.8201 58.3886 16.8201C56.4438 16.8201 55.5686 18.0113 55.5686 20.5639V25.4746H52.3839V14.0488H55.0338L55.1796 15.8234H55.2283C55.8603 14.4863 56.9786 13.8057 58.6317 13.8057Z" fill="#FDF4FF"/>
<path d="M73.2828 25.4746H70.633L70.5357 23.943H70.4871C69.7335 25.0613 68.4694 25.7177 66.7677 25.7177C63.5344 25.7177 61.1763 23.2137 61.1763 19.7617C61.1763 16.3096 63.5344 13.8057 66.7677 13.8057C68.4451 13.8057 69.7335 14.4377 70.4628 15.5317H70.5114L70.633 14.0488H73.2828V25.4746ZM67.3025 22.8977C69.0042 22.8977 70.1954 21.6093 70.1954 19.7617C70.1954 17.9141 69.0042 16.6257 67.3025 16.6257C65.5765 16.6257 64.3852 17.9141 64.3852 19.7617C64.3852 21.6093 65.5765 22.8977 67.3025 22.8977Z" fill="#FDF4FF"/>
<path d="M81.6678 13.8057C83.2479 13.8057 84.3419 14.0731 85.2171 14.6565V18.06H85.0955C84.3419 17.0875 83.3209 16.6257 82.0081 16.6257C79.9174 16.6257 78.6533 17.8412 78.6533 19.7617C78.6533 21.6579 79.9174 22.8977 82.0081 22.8977C83.3452 22.8977 84.3662 22.4115 85.0955 21.4391H85.2171V24.8668C84.3905 25.4503 83.2722 25.7177 81.6678 25.7177C77.9483 25.7177 75.4443 23.2624 75.4443 19.7617C75.4443 16.261 77.9483 13.8057 81.6678 13.8057Z" fill="#FDF4FF"/>
<path d="M90.847 25.4746H87.6623V8.4574H90.847V18.7163L94.7852 14.0488H98.7235L93.7642 19.6158L98.9666 25.4746H94.8582L90.847 20.6855V25.4746Z" fill="#FDF4FF"/>
<path d="M111.588 17.2091V17.2577C113.363 17.8412 114.262 19.1053 114.262 20.9772C114.262 23.943 112.293 25.4746 108.525 25.4746H100.964V9.33257H107.917C111.71 9.33257 113.679 10.8641 113.679 13.7813C113.679 15.4344 112.974 16.577 111.588 17.2091ZM104.562 15.8477H107.625C109.303 15.8477 110.056 15.2886 110.056 14.1703C110.056 13.0763 109.327 12.5415 107.869 12.5415H104.562V15.8477ZM104.562 22.2656H108.403C109.886 22.2656 110.616 21.7308 110.616 20.5882C110.616 19.47 109.838 18.8622 108.185 18.8622H104.562V22.2656Z" fill="#FDF4FF"/>
<path d="M127.011 25.4746H124.362L124.24 23.8458H124.191C123.511 25.037 122.295 25.7177 120.642 25.7177C117.846 25.7177 116.193 23.8944 116.193 20.807V14.0488H119.378V20.4424C119.378 22.0225 120.156 22.8977 121.493 22.8977C122.952 22.8977 123.827 21.901 123.827 20.1263V14.0488H127.011V25.4746Z" fill="#FDF4FF"/>
<path d="M141.276 25.4746H138.626L138.529 23.943H138.48C137.726 25.0613 136.462 25.7177 134.76 25.7177C131.527 25.7177 129.169 23.2137 129.169 19.7617C129.169 16.3096 131.527 13.8057 134.76 13.8057C136.17 13.8057 137.264 14.2432 138.042 15.0212H138.091V8.4574H141.276V25.4746ZM135.295 22.8977C136.997 22.8977 138.188 21.6093 138.188 19.7617C138.188 17.9141 136.997 16.6257 135.295 16.6257C133.569 16.6257 132.378 17.9141 132.378 19.7617C132.378 21.6093 133.569 22.8977 135.295 22.8977Z" fill="#FDF4FF"/>
</svg>
