<svg width="25" height="25" viewBox="0 0 25 25" fill="none" xmlns="http://www.w3.org/2000/svg">
<path d="M12.5 21.875C13.7533 21.8751 14.9939 21.6239 16.1484 21.1362C17.3029 20.6485 18.3479 19.9344 19.2217 19.0359C20.0954 18.1374 20.7801 17.0728 21.2353 15.9051C21.6905 14.7374 21.907 13.4903 21.8719 12.2375C20.5608 13.1501 18.9863 13.6068 17.3903 13.5376C15.7944 13.4684 14.2653 12.877 13.0382 11.8543C11.811 10.8316 10.9537 9.43421 10.5979 7.8769C10.242 6.31958 10.4075 4.68852 11.0688 3.23438C8.73358 3.59424 6.62039 4.82257 5.15198 6.67361C3.68358 8.52466 2.96826 10.8619 3.14914 13.2177C3.33002 15.5735 4.39377 17.7742 6.12755 19.3793C7.86132 20.9845 10.1373 21.8759 12.5 21.875Z" stroke="#080708" stroke-width="1.5625" stroke-linecap="round" stroke-linejoin="round"/>
</svg>
