<svg width="24" height="25" viewBox="0 0 24 25" fill="none" xmlns="http://www.w3.org/2000/svg">
<path d="M11.0909 7.04546C11.0909 7.94446 10.8243 8.82328 10.3249 9.57077C9.8254 10.3183 9.1155 10.9009 8.28493 11.2449C7.45435 11.5889 6.54041 11.679 5.65868 11.5036C4.77695 11.3282 3.96703 10.8953 3.33133 10.2596C2.69564 9.62388 2.26273 8.81396 2.08734 7.93223C1.91195 7.0505 2.00197 6.13656 2.346 5.30599C2.69004 4.47541 3.27264 3.76551 4.02014 3.26605C4.76763 2.76659 5.64645 2.5 6.54546 2.5C7.75098 2.5 8.90714 2.9789 9.75958 3.83133C10.612 4.68377 11.0909 5.83993 11.0909 7.04546ZM17.4545 11.5909C18.3535 11.5909 19.2324 11.3243 19.9799 10.8249C20.7274 10.3254 21.31 9.6155 21.654 8.78493C21.998 7.95435 22.088 7.04041 21.9127 6.15868C21.7373 5.27695 21.3044 4.46703 20.6687 3.83133C20.033 3.19564 19.223 2.76273 18.3413 2.58734C17.4596 2.41195 16.5456 2.50197 15.7151 2.846C14.8845 3.19004 14.1746 3.77264 13.6751 4.52014C13.1757 5.26763 12.9091 6.14645 12.9091 7.04546C12.9091 8.25098 13.388 9.40714 14.2404 10.2596C15.0929 11.112 16.249 11.5909 17.4545 11.5909ZM6.54546 13.4091C5.64645 13.4091 4.76763 13.6757 4.02014 14.1751C3.27264 14.6746 2.69004 15.3845 2.346 16.2151C2.00197 17.0456 1.91195 17.9596 2.08734 18.8413C2.26273 19.723 2.69564 20.533 3.33133 21.1687C3.96703 21.8044 4.77695 22.2373 5.65868 22.4127C6.54041 22.588 7.45435 22.498 8.28493 22.154C9.1155 21.81 9.8254 21.2274 10.3249 20.4799C10.8243 19.7324 11.0909 18.8535 11.0909 17.9545C11.0909 16.749 10.612 15.5929 9.75958 14.7404C8.90714 13.888 7.75098 13.4091 6.54546 13.4091ZM17.4545 13.4091C16.5555 13.4091 15.6767 13.6757 14.9292 14.1751C14.1817 14.6746 13.5991 15.3845 13.2551 16.2151C12.9111 17.0456 12.821 17.9596 12.9964 18.8413C13.1718 19.723 13.6047 20.533 14.2404 21.1687C14.8761 21.8044 15.686 22.2373 16.5678 22.4127C17.4495 22.588 18.3634 22.498 19.194 22.154C20.0246 21.81 20.7345 21.2274 21.234 20.4799C21.7334 19.7324 22 18.8535 22 17.9545C22 16.749 21.5211 15.5929 20.6687 14.7404C19.8162 13.888 18.6601 13.4091 17.4545 13.4091Z" stroke="#676876" stroke-width="1.4"/>
</svg>
