<svg width="36" height="35" viewBox="0 0 36 35" fill="none" xmlns="http://www.w3.org/2000/svg">
<path d="M11.4375 5.8335C8.62296 5.8335 6.33337 8.12308 6.33337 10.9377C6.33337 13.7522 8.62296 16.0418 11.4375 16.0418C14.2521 16.0418 16.5417 13.7522 16.5417 10.9377C16.5417 8.12308 14.2521 5.8335 11.4375 5.8335ZM11.4375 13.1252C10.2271 13.1252 9.25004 12.1481 9.25004 10.9377C9.25004 9.72725 10.2271 8.75016 11.4375 8.75016C12.648 8.75016 13.625 9.72725 13.625 10.9377C13.625 12.1481 12.648 13.1252 11.4375 13.1252ZM24.5625 18.9585C21.748 18.9585 19.4584 21.2481 19.4584 24.0627C19.4584 26.8772 21.748 29.1668 24.5625 29.1668C27.3771 29.1668 29.6667 26.8772 29.6667 24.0627C29.6667 21.2481 27.3771 18.9585 24.5625 18.9585ZM24.5625 26.2502C23.3521 26.2502 22.375 25.2731 22.375 24.0627C22.375 22.8522 23.3521 21.8752 24.5625 21.8752C25.773 21.8752 26.75 22.8522 26.75 24.0627C26.75 25.2731 25.773 26.2502 24.5625 26.2502ZM28.6313 6.86891C29.2 7.43766 29.2 8.35641 28.6313 8.92516L9.42504 28.1314C9.29002 28.2664 9.12974 28.3735 8.95333 28.4466C8.77693 28.5197 8.58786 28.5573 8.39692 28.5573C8.20598 28.5573 8.0169 28.5197 7.8405 28.4466C7.66409 28.3735 7.50381 28.2664 7.36879 28.1314C7.23378 27.9964 7.12668 27.8361 7.05361 27.6597C6.98054 27.4833 6.94293 27.2942 6.94293 27.1033C6.94293 26.9123 6.98054 26.7233 7.05361 26.5469C7.12668 26.3705 7.23378 26.2102 7.36879 26.0752L26.575 6.86891C26.71 6.73372 26.8702 6.62646 27.0466 6.55328C27.223 6.4801 27.4122 6.44243 27.6032 6.44243C27.7942 6.44243 27.9833 6.4801 28.1597 6.55328C28.3361 6.62646 28.4964 6.73372 28.6313 6.86891Z" fill="#727272"/>
</svg>
