<svg width="25" height="25" viewBox="0 0 25 25" fill="none" xmlns="http://www.w3.org/2000/svg">
<path fill-rule="evenodd" clip-rule="evenodd" d="M12.5 8.59375C11.464 8.59375 10.4704 9.0053 9.73786 9.73786C9.0053 10.4704 8.59375 11.464 8.59375 12.5C8.59375 13.536 9.0053 14.5296 9.73786 15.2621C10.4704 15.9947 11.464 16.4062 12.5 16.4062C13.536 16.4062 14.5296 15.9947 15.2621 15.2621C15.9947 14.5296 16.4062 13.536 16.4062 12.5C16.4062 11.464 15.9947 10.4704 15.2621 9.73786C14.5296 9.0053 13.536 8.59375 12.5 8.59375ZM10.1562 12.5C10.1562 11.8784 10.4032 11.2823 10.8427 10.8427C11.2823 10.4032 11.8784 10.1562 12.5 10.1562C13.1216 10.1562 13.7177 10.4032 14.1573 10.8427C14.5968 11.2823 14.8438 11.8784 14.8438 12.5C14.8438 13.1216 14.5968 13.7177 14.1573 14.1573C13.7177 14.5968 13.1216 14.8438 12.5 14.8438C11.8784 14.8438 11.2823 14.5968 10.8427 14.1573C10.4032 13.7177 10.1562 13.1216 10.1562 12.5Z" fill="#080708"/>
<path fill-rule="evenodd" clip-rule="evenodd" d="M12.474 1.30225C12.0105 1.30225 11.624 1.30225 11.3073 1.32308C10.9837 1.33656 10.6644 1.40343 10.3625 1.521C10.0149 1.66484 9.69898 1.87576 9.43285 2.14171C9.16672 2.40766 8.95559 2.72344 8.81151 3.071C8.66047 3.43558 8.61984 3.821 8.60318 4.23975C8.60151 4.39289 8.56097 4.54311 8.48535 4.6763C8.40974 4.80948 8.30153 4.92128 8.17088 5.0012C8.03639 5.07465 7.88543 5.1127 7.73219 5.11179C7.57895 5.11087 7.42846 5.07103 7.29484 4.996C6.92401 4.80016 6.56984 4.64287 6.17818 4.59079C5.8052 4.54173 5.42622 4.56661 5.06286 4.66402C4.6995 4.76143 4.35889 4.92945 4.06047 5.1585C3.80815 5.3615 3.591 5.60468 3.41776 5.87829C3.24068 6.14287 3.04693 6.47725 2.81568 6.87829L2.78963 6.92412C2.55734 7.32516 2.36463 7.65954 2.22505 7.94495C2.07922 8.24287 1.96463 8.53662 1.92297 8.86162C1.82359 9.61474 2.02742 10.3765 2.48963 10.9793C2.73026 11.2929 3.0438 11.521 3.39797 11.7439C3.53001 11.822 3.64002 11.9323 3.71765 12.0646C3.79528 12.1969 3.83797 12.3468 3.84172 12.5002C3.83797 12.6535 3.79528 12.8034 3.71765 12.9357C3.64002 13.068 3.53001 13.1783 3.39797 13.2564C3.0438 13.4793 2.7313 13.7075 2.48963 14.021C2.26059 14.3194 2.09257 14.66 1.99516 15.0234C1.89775 15.3867 1.87287 15.7657 1.92193 16.1387C1.96463 16.4637 2.07818 16.7575 2.22401 17.0554C2.36463 17.3408 2.55734 17.6752 2.78963 18.0762L2.81568 18.122C3.04693 18.5231 3.24068 18.8575 3.41776 19.122C3.60213 19.396 3.80005 19.6429 4.06047 19.8408C4.35881 20.07 4.69939 20.2382 5.06275 20.3358C5.42611 20.4334 5.80513 20.4585 6.17818 20.4095C6.56984 20.3575 6.92401 20.2012 7.29484 20.0043C7.4283 19.9294 7.57861 19.8896 7.73167 19.8887C7.88473 19.8878 8.0355 19.9258 8.16984 19.9991C8.30122 20.0784 8.4101 20.19 8.48614 20.3233C8.56217 20.4566 8.60282 20.6071 8.60422 20.7606C8.61984 21.1793 8.66047 21.5647 8.81255 21.9293C8.95639 22.277 9.16731 22.5929 9.43327 22.859C9.69922 23.1252 10.015 23.3363 10.3625 23.4804C10.6646 23.6054 10.9771 23.6543 11.3073 23.6762C11.624 23.6981 12.0105 23.6981 12.474 23.6981H12.5261C12.9896 23.6981 13.3761 23.6981 13.6928 23.6772C14.024 23.6543 14.3355 23.6054 14.6376 23.4793C14.9852 23.3355 15.3011 23.1246 15.5673 22.8586C15.8334 22.5927 16.0445 22.2769 16.1886 21.9293C16.3396 21.5647 16.3803 21.1793 16.3969 20.7606C16.3984 20.6073 16.4389 20.4568 16.5145 20.3234C16.5901 20.1901 16.6984 20.0781 16.8292 19.9981C16.9638 19.9248 17.1148 19.8869 17.268 19.888C17.4213 19.8891 17.5717 19.9291 17.7053 20.0043C18.0761 20.2002 18.4303 20.3575 18.8219 20.4085C19.575 20.5079 20.3368 20.304 20.9396 19.8418C21.2 19.6418 21.398 19.396 21.5823 19.122C21.7594 18.8575 21.9532 18.5231 22.1844 18.122L22.2105 18.0762C22.4428 17.6752 22.6355 17.3408 22.775 17.0554C22.9209 16.7575 23.0355 16.4627 23.0771 16.1387C23.1765 15.3856 22.9727 14.6238 22.5105 14.021C22.2698 13.7075 21.9563 13.4793 21.6021 13.2564C21.4701 13.1783 21.3601 13.068 21.2825 12.9357C21.2048 12.8034 21.1621 12.6535 21.1584 12.5002C21.1584 12.2106 21.3167 11.9231 21.6021 11.7439C21.9563 11.521 22.2688 11.2929 22.5105 10.9793C22.7395 10.6809 22.9075 10.3403 23.0049 9.97694C23.1024 9.61358 23.1272 9.2346 23.0782 8.86162C23.0286 8.54153 22.9265 8.23181 22.7761 7.94495C22.5982 7.59886 22.4096 7.25841 22.2105 6.92412L22.1844 6.87829C21.9941 6.5388 21.7933 6.2053 21.5823 5.87829C21.4091 5.60497 21.192 5.36213 20.9396 5.15954C20.6413 4.93031 20.3007 4.7621 19.9374 4.66451C19.574 4.56693 19.195 4.54187 18.8219 4.59079C18.4303 4.64287 18.0761 4.79912 17.7053 4.996C17.5718 5.07084 17.4215 5.11059 17.2684 5.1115C17.1154 5.11241 16.9646 5.07446 16.8303 5.0012C16.6992 4.92154 16.5906 4.80985 16.5146 4.67664C16.4386 4.54343 16.3978 4.39309 16.3959 4.23975C16.3803 3.821 16.3396 3.43558 16.1875 3.071C16.0437 2.72334 15.8328 2.40742 15.5668 2.14129C15.3009 1.87516 14.9851 1.66403 14.6376 1.51995C14.3355 1.39495 14.023 1.346 13.6928 1.32412C13.3761 1.30225 12.9896 1.30225 12.5261 1.30225H12.474ZM10.9605 2.9637C11.0407 2.93037 11.1625 2.90016 11.4136 2.88245C11.6709 2.86475 12.0042 2.86475 12.5 2.86475C12.9959 2.86475 13.3292 2.86475 13.5865 2.88245C13.8376 2.90016 13.9594 2.93037 14.0396 2.9637C14.3594 3.096 14.6125 3.34912 14.7448 3.66891C14.7865 3.76891 14.8209 3.9262 14.8344 4.29808C14.8657 5.12308 15.2917 5.91787 16.048 6.35433C16.8042 6.79183 17.7053 6.76266 18.4355 6.37725C18.7646 6.20329 18.9178 6.15433 19.0261 6.14079C19.3683 6.09556 19.7146 6.18811 19.9886 6.39808C20.0573 6.4512 20.1448 6.54183 20.2855 6.75016C20.4303 6.96475 20.5969 7.25329 20.8448 7.68245C21.0928 8.11162 21.2584 8.4012 21.3719 8.63245C21.4834 8.8585 21.5178 8.97933 21.5282 9.06579C21.5734 9.40804 21.4809 9.75425 21.2709 10.0283C21.2042 10.1147 21.0855 10.2231 20.7709 10.421C20.0709 10.8606 19.5959 11.6272 19.5959 12.5002C19.5959 13.3731 20.0709 14.1397 20.7709 14.5793C21.0855 14.7772 21.2042 14.8856 21.2709 14.972C21.4813 15.246 21.573 15.5918 21.5282 15.9345C21.5178 16.021 21.4823 16.1429 21.3719 16.3679C21.2584 16.6002 21.0928 16.8887 20.8448 17.3179C20.5969 17.747 20.4292 18.0356 20.2855 18.2502C20.1448 18.4585 20.0573 18.5491 19.9886 18.6022C19.7146 18.8122 19.3683 18.9048 19.0261 18.8595C18.9178 18.846 18.7657 18.797 18.4355 18.6231C17.7063 18.2377 16.8042 18.2085 16.048 18.645C15.2917 19.0825 14.8657 19.8772 14.8344 20.7022C14.8209 21.0741 14.7865 21.2314 14.7448 21.3314C14.6794 21.4895 14.5834 21.6332 14.4624 21.7542C14.3414 21.8752 14.1978 21.9712 14.0396 22.0366C13.9594 22.07 13.8376 22.1002 13.5865 22.1179C13.3292 22.1356 12.9959 22.1356 12.5 22.1356C12.0042 22.1356 11.6709 22.1356 11.4136 22.1179C11.1625 22.1002 11.0407 22.07 10.9605 22.0366C10.8023 21.9712 10.6587 21.8752 10.5377 21.7542C10.4167 21.6332 10.3207 21.4895 10.2553 21.3314C10.2136 21.2314 10.1792 21.0741 10.1657 20.7022C10.1344 19.8772 9.70838 19.0825 8.95213 18.646C8.19588 18.2085 7.29484 18.2377 6.56463 18.6231C6.23547 18.797 6.08234 18.846 5.97401 18.8595C5.63175 18.9048 5.28555 18.8122 5.01151 18.6022C4.94276 18.5491 4.85526 18.4585 4.71463 18.2502C4.51871 17.9452 4.33216 17.6343 4.15526 17.3179C3.90734 16.8887 3.74172 16.5991 3.62818 16.3679C3.51672 16.1418 3.48234 16.021 3.47193 15.9345C3.4267 15.5923 3.51925 15.2461 3.72922 14.972C3.79588 14.8856 3.91463 14.7772 4.22922 14.5793C4.92922 14.1397 5.40422 13.3731 5.40422 12.5002C5.40422 11.6272 4.92922 10.8606 4.22922 10.421C3.91463 10.2231 3.79588 10.1147 3.72922 10.0283C3.51925 9.75425 3.4267 9.40804 3.47193 9.06579C3.48234 8.97933 3.51776 8.85745 3.62818 8.63245C3.74172 8.40016 3.90734 8.11162 4.15526 7.68245C4.40318 7.25329 4.57088 6.96475 4.71463 6.75016C4.85526 6.54183 4.94276 6.4512 5.01151 6.39808C5.28555 6.18811 5.63175 6.09556 5.97401 6.14079C6.08234 6.15433 6.23443 6.20329 6.56463 6.37725C7.2938 6.76266 8.19588 6.79183 8.95213 6.35433C9.70838 5.91787 10.1344 5.12308 10.1657 4.29808C10.1792 3.9262 10.2136 3.76891 10.2553 3.66891C10.3876 3.34912 10.6407 3.096 10.9605 2.9637Z" fill="#080708"/>
</svg>
