<svg width="25" height="25" viewBox="0 0 25 25" fill="none" xmlns="http://www.w3.org/2000/svg">
<g clip-path="url(#clip0_402_99)">
<path d="M12.5 20.5358C13.5553 20.5358 14.6002 20.3279 15.5751 19.9241C16.5501 19.5203 17.4359 18.9284 18.1821 18.1822C18.9283 17.436 19.5202 16.5501 19.924 15.5752C20.3279 14.6003 20.5357 13.5553 20.5357 12.5001C20.5357 11.4448 20.3279 10.3999 19.924 9.42493C19.5202 8.45 18.9283 7.56415 18.1821 6.81796C17.4359 6.07178 16.5501 5.47987 15.5751 5.07604C14.6002 4.67221 13.5553 4.46436 12.5 4.46436C10.3688 4.46436 8.32489 5.31097 6.8179 6.81796C5.31091 8.32495 4.46429 10.3689 4.46429 12.5001C4.46429 14.6313 5.31091 16.6752 6.8179 18.1822C8.32489 19.6892 10.3688 20.5358 12.5 20.5358Z" stroke="#080708" stroke-width="1.78571" stroke-linecap="round" stroke-linejoin="round"/>
<path d="M12.5 4.46449V0.893066M12.5 24.1074V20.5359M20.5357 12.5002H24.1071M0.892853 12.5002H4.46428M12.5 13.3931C12.7368 13.3931 12.9639 13.299 13.1313 13.1316C13.2988 12.9641 13.3929 12.737 13.3929 12.5002C13.3929 12.2634 13.2988 12.0363 13.1313 11.8689C12.9639 11.7014 12.7368 11.6074 12.5 11.6074C12.2632 11.6074 12.0361 11.7014 11.8687 11.8689C11.7012 12.0363 11.6071 12.2634 11.6071 12.5002C11.6071 12.737 11.7012 12.9641 11.8687 13.1316C12.0361 13.299 12.2632 13.3931 12.5 13.3931Z" stroke="#080708" stroke-width="1.78571" stroke-linecap="round" stroke-linejoin="round"/>
</g>
<defs>
<clipPath id="clip0_402_99">
<rect width="25" height="25" fill="white"/>
</clipPath>
</defs>
</svg>
