<svg width="24" height="25" viewBox="0 0 24 25" fill="none" xmlns="http://www.w3.org/2000/svg">
<path d="M16.5 7.5C16.5 9.98528 14.4853 12 12 12C9.51472 12 7.5 9.98528 7.5 7.5C7.5 5.01472 9.51472 3 12 3C14.4853 3 16.5 5.01472 16.5 7.5Z" fill="#3B42E8" stroke="#3B42E8" stroke-linecap="round" stroke-linejoin="round"/>
<mask id="path-2-inside-1_689_42" fill="white">
<path d="M20.59 22.5C20.59 18.63 16.74 15.5 12 15.5C7.26003 15.5 3.41003 18.63 3.41003 22.5"/>
</mask>
<path d="M20.59 22.5C20.59 18.63 16.74 15.5 12 15.5C7.26003 15.5 3.41003 18.63 3.41003 22.5" fill="#3B42E8"/>
<path d="M19.59 22.5C19.59 23.0523 20.0377 23.5 20.59 23.5C21.1423 23.5 21.59 23.0523 21.59 22.5H19.59ZM2.41003 22.5C2.41003 23.0523 2.85775 23.5 3.41003 23.5C3.96232 23.5 4.41003 23.0523 4.41003 22.5H2.41003ZM21.59 22.5C21.59 17.8955 17.0905 14.5 12 14.5V16.5C16.3895 16.5 19.59 19.3645 19.59 22.5H21.59ZM12 14.5C6.90953 14.5 2.41003 17.8955 2.41003 22.5H4.41003C4.41003 19.3645 7.61053 16.5 12 16.5V14.5Z" fill="#3B42E8" mask="url(#path-2-inside-1_689_42)"/>
</svg>
